<?xml version="1.0" standalone="no"?>
<!DOCTYPE svg PUBLIC "-//W3C//DTD SVG 20010904//EN"
 "http://www.w3.org/TR/2001/REC-SVG-20010904/DTD/svg10.dtd">
<svg version="1.0" xmlns="http://www.w3.org/2000/svg"
 width="300.000000pt" height="300.000000pt" viewBox="0 0 300.000000 300.000000"
 preserveAspectRatio="xMidYMid meet">
<metadata>
Created by potrace 1.10, written by Peter Selinger 2001-2011
</metadata>
<g transform="translate(0.000000,300.000000) scale(0.100000,-0.100000)"
fill="#000000" stroke="none">
<path d="M1414 2373 c-94 -121 -141 -192 -213 -325 l-31 -58 175 0 175 0 0
255 c0 140 -2 255 -3 255 -2 0 -49 -57 -103 -127z m76 -157 c0 -127 -2 -167
-13 -178 -16 -16 -214 -24 -236 -9 -11 7 -2 30 48 112 65 110 177 253 191 244
5 -3 9 -79 10 -169z"/>
<path d="M1646 2447 c22 -24 53 -63 70 -87 17 -25 74 -106 127 -179 105 -146
132 -212 50 -120 -27 29 -58 66 -70 83 -38 50 -26 21 28 -69 l51 -85 142 0
142 0 32 77 c18 42 29 80 25 83 -5 4 -37 23 -73 42 -36 19 -90 49 -120 65 -56
31 -223 119 -340 180 -36 19 -69 39 -74 44 -6 5 -14 9 -19 9 -5 0 8 -19 29
-43z m444 -247 c36 -20 73 -39 83 -43 26 -10 31 -34 16 -79 -16 -50 -39 -60
-137 -56 l-75 3 -28 54 c-15 29 -37 63 -47 75 -29 31 -152 208 -152 218 0 8
190 -88 340 -172z"/>
<path d="M1265 2403 c-77 -41 -203 -109 -280 -151 -77 -42 -152 -82 -167 -90
-16 -7 -28 -14 -28 -15 0 -1 13 -36 29 -77 l28 -75 146 -3 c166 -3 143 -14
206 103 l32 60 -61 -67 c-59 -65 -80 -80 -80 -58 0 5 28 47 63 92 35 46 96
130 136 186 40 57 87 119 103 138 17 19 26 34 22 33 -5 0 -72 -34 -149 -76z
m16 -50 c-6 -10 -28 -43 -50 -73 -88 -123 -139 -197 -155 -228 l-17 -32 -88 0
c-84 0 -90 1 -106 26 -9 14 -19 40 -22 58 l-5 33 119 66 c66 37 139 76 164 87
24 12 67 34 94 50 59 34 81 39 66 13z"/>
<path d="M1540 2238 l0 -248 166 0 166 0 -26 43 c-14 23 -42 74 -62 114 -21
40 -67 110 -103 156 -89 113 -109 139 -126 162 -13 18 -14 -8 -15 -227z m128
33 c65 -86 141 -226 129 -238 -12 -11 -186 -14 -207 -3 -17 9 -19 24 -19 167
0 86 2 160 5 165 8 13 29 -7 92 -91z"/>
<path d="M2289 2092 c-7 -20 -15 -40 -17 -44 -2 -5 15 4 37 19 41 27 43 36 12
52 -14 8 -20 4 -32 -27z"/>
<path d="M695 2106 c-18 -13 -17 -15 20 -32 22 -10 44 -20 48 -22 4 -2 0 12
-10 32 -18 39 -29 43 -58 22z"/>
<path d="M661 1498 c0 -482 2 -559 14 -533 35 78 135 314 135 319 0 7 126 283
141 310 13 22 0 57 -90 247 -17 36 -31 71 -31 77 0 16 -79 92 -94 92 -7 0 -23
11 -36 25 -13 14 -27 25 -32 25 -4 0 -8 -253 -7 -562z m133 418 c7 -17 31 -67
51 -111 60 -129 75 -165 75 -186 0 -10 -21 -65 -46 -121 -25 -57 -63 -144 -84
-194 -47 -112 -80 -178 -86 -171 -4 4 -6 321 -5 725 l1 133 40 -22 c21 -12 46
-36 54 -53z"/>
<path d="M2293 2004 c-62 -46 -74 -61 -92 -110 -12 -31 -41 -98 -65 -149 -24
-51 -47 -102 -50 -113 -4 -12 8 -48 33 -100 22 -44 50 -104 61 -133 12 -30 45
-108 75 -174 29 -66 67 -156 85 -200 18 -44 34 -82 36 -84 2 -2 4 248 4 557 0
309 -3 562 -7 561 -5 0 -40 -25 -80 -55z m55 -439 c1 -230 -2 -423 -6 -427
-11 -11 -222 450 -222 485 0 10 20 59 43 110 24 50 52 114 62 140 18 48 88
121 109 114 8 -3 12 -141 14 -422z"/>
<path d="M985 1884 c42 -30 78 -54 79 -52 0 2 13 26 27 55 l26 52 -105 0 -105
1 78 -56z"/>
<path d="M1140 1925 c-4 -5 -19 -33 -33 -61 l-26 -52 82 -61 c195 -147 257
-191 267 -191 5 0 10 -3 10 -7 0 -8 61 -53 71 -53 2 0 4 97 4 216 l0 216 -183
1 c-113 1 -187 -2 -192 -8z m347 -160 c3 -138 -2 -195 -17 -195 -11 0 -58 33
-215 148 -130 95 -145 117 -105 160 21 22 26 22 178 20 l157 -3 2 -130z"/>
<path d="M1540 1723 c0 -117 3 -213 7 -213 4 0 16 9 28 20 12 11 40 33 63 48
22 15 104 73 181 130 l140 103 -30 62 -31 62 -179 0 -179 0 0 -212z m354 155
c30 -42 20 -62 -56 -120 -192 -144 -253 -184 -261 -171 -7 13 -9 292 -2 303 4
6 68 10 155 10 142 0 150 -1 164 -22z"/>
<path d="M1930 1935 c0 -3 11 -28 25 -56 16 -30 30 -47 37 -43 6 4 40 29 75
55 l64 49 -100 0 c-56 0 -101 -2 -101 -5z"/>
<path d="M897 1898 c5 -7 19 -35 31 -63 11 -27 30 -72 42 -99 l22 -48 25 53
24 54 -23 18 c-13 10 -44 36 -70 57 -46 39 -70 52 -51 28z"/>
<path d="M2082 1860 c-34 -27 -67 -50 -72 -52 -6 -2 0 -28 14 -63 l25 -60 11
31 c6 17 28 67 50 110 21 43 38 80 37 81 -1 1 -30 -20 -65 -47z"/>
<path d="M1037 1721 c-30 -63 -29 -69 13 -156 11 -22 45 -98 76 -170 31 -71
58 -131 59 -133 2 -2 33 19 69 45 37 26 103 73 146 103 44 30 80 59 80 63 0 4
-56 48 -126 98 -69 49 -161 117 -205 149 -43 33 -79 60 -81 60 -2 0 -15 -27
-31 -59z m203 -103 c74 -54 148 -109 164 -121 l30 -23 -97 -72 c-117 -87 -138
-94 -156 -55 -62 131 -131 298 -131 316 0 30 28 69 43 60 7 -4 73 -51 147
-105z"/>
<path d="M1938 1758 c-13 -13 -50 -41 -82 -63 -31 -22 -85 -61 -119 -86 -34
-25 -91 -65 -126 -89 l-64 -44 24 -19 c13 -10 78 -57 144 -104 66 -47 125 -89
131 -94 7 -6 26 28 56 99 25 59 65 150 88 204 l43 96 -28 61 c-16 34 -32 61
-35 61 -4 0 -18 -10 -32 -22z m47 -133 c-7 -16 -39 -88 -69 -160 -31 -71 -63
-136 -70 -144 -12 -11 -22 -8 -68 22 -29 20 -79 57 -111 82 -66 53 -66 54 12
108 25 17 88 62 139 100 52 38 106 75 120 83 26 14 27 13 44 -23 14 -32 15
-41 3 -68z"/>
<path d="M955 1533 c-19 -50 -36 -92 -90 -208 -17 -38 -38 -86 -45 -105 -18
-47 -44 -106 -96 -219 -24 -52 -44 -96 -44 -99 0 -3 10 3 23 14 12 11 38 30
57 44 19 13 93 65 163 115 71 49 149 103 173 118 l44 28 -15 32 c-7 18 -42 98
-77 179 -35 81 -66 148 -69 148 -4 0 -14 -21 -24 -47z m58 -100 c53 -118 77
-176 77 -187 0 -21 -17 -34 -260 -200 -30 -21 -56 -33 -57 -29 -2 5 12 44 32
87 19 42 35 81 35 86 0 5 16 43 35 84 19 41 35 78 35 81 0 12 64 135 70 135 3
0 18 -26 33 -57z"/>
<path d="M2048 1550 c-86 -199 -130 -298 -137 -311 -8 -13 2 -24 47 -55 31
-22 104 -73 162 -114 58 -41 125 -88 150 -104 25 -17 56 -39 69 -50 16 -14 22
-16 18 -6 -14 37 -91 209 -127 287 -22 47 -40 89 -40 93 0 5 -24 62 -53 127
-29 65 -58 129 -64 143 l-10 25 -15 -35z m63 -147 c23 -49 47 -104 54 -123 7
-19 24 -60 38 -90 53 -116 75 -175 67 -178 -5 -2 -48 24 -97 58 -48 33 -113
78 -143 99 -76 53 -84 64 -72 98 30 81 99 223 108 223 3 0 23 -39 45 -87z"/>
<path d="M1448 1408 c-29 -24 -85 -64 -123 -91 -39 -26 -82 -57 -98 -70 l-27
-22 31 -75 c17 -41 35 -80 40 -86 5 -6 20 -39 33 -75 14 -35 38 -91 54 -124
16 -34 58 -126 92 -205 34 -80 64 -147 66 -149 2 -2 4 208 4 467 0 295 -4 472
-10 472 -5 0 -33 -19 -62 -42z m40 -376 c1 -191 -1 -342 -6 -342 -9 0 -32 46
-157 324 -42 93 -77 178 -78 189 -1 14 26 41 103 98 58 43 112 77 120 76 13
-2 15 -49 18 -345z"/>
<path d="M1540 988 l1 -452 33 80 c18 43 68 156 110 249 43 94 84 184 91 200
43 95 65 159 58 164 -73 50 -253 183 -262 195 -8 9 -17 16 -22 16 -6 0 -9
-190 -9 -452z m160 302 c47 -34 88 -68 93 -75 8 -16 -4 -47 -115 -291 -116
-253 -107 -262 -107 112 -1 176 2 324 5 327 9 8 24 -1 124 -73z"/>
<path d="M1119 1171 c-44 -33 -365 -257 -397 -277 -18 -10 -32 -21 -32 -25 0
-7 351 -198 595 -324 72 -37 145 -76 164 -88 25 -15 33 -17 29 -6 -54 126 -85
196 -112 254 -44 91 -192 433 -201 463 -8 27 -15 27 -46 3z m63 -126 c22 -50
61 -139 88 -200 26 -60 64 -144 83 -186 42 -88 54 -129 38 -129 -10 0 -131 61
-326 165 -240 128 -313 172 -307 181 12 18 367 264 376 261 5 -2 26 -43 48
-92z"/>
<path d="M1869 1143 c-11 -26 -34 -79 -49 -118 -16 -38 -35 -83 -44 -100 -14
-28 -201 -443 -214 -474 -3 -7 28 4 69 26 41 22 121 65 179 96 58 30 129 69
158 86 29 17 57 31 62 31 5 0 32 13 60 30 28 16 90 51 138 76 140 75 139 60
10 151 -62 44 -160 113 -217 154 -58 41 -111 78 -118 82 -10 6 -19 -6 -34 -40z
m338 -208 c40 -28 72 -55 73 -61 0 -7 -60 -45 -132 -84 -73 -40 -143 -79 -156
-87 -13 -8 -97 -52 -187 -99 -112 -58 -165 -81 -165 -71 0 16 246 575 262 594
8 9 38 -7 122 -65 61 -42 143 -100 183 -127z"/>
</g>
</svg>
